<svg xmlns="http://www.w3.org/2000/svg" viewBox="0 0 800 450" role="img" aria-labelledby="t d"><title id="t">Chile coast</title><desc id="d">Stylised Pacific coastline and hillside city.</desc><defs><linearGradient id="s" x2="0" y2="1"><stop stop-color="#79c8df"/><stop offset="1" stop-color="#dff5ef"/></linearGradient></defs><rect width="800" height="450" fill="url(#s)"/><circle cx="655" cy="88" r="50" fill="#f5c84c"/><path d="M0 300 130 170l112 84 125-148 122 122 100-80 211 142v160H0z" fill="#176b5b" opacity=".55"/><path d="M0 320c175-42 300 40 470 4s225-22 330 16v110H0z" fill="#087f9c"/><path d="M0 357c155-35 280 35 430 2s260-30 370 8" fill="none" stroke="#fff" stroke-width="13" opacity=".6"/><path d="M0 404c160-28 300 24 450 0s245-21 350 10" fill="none" stroke="#fff" stroke-width="8" opacity=".42"/><g fill="#e87f5e"><path d="M90 242h78v68H90zM183 218h82v92h-82zM284 248h75v62h-75z"/></g><g fill="#f5c84c"><path d="M110 262h18v20h-18zM210 245h20v23h-20zM310 267h18v20h-18z"/></g></svg>