<svg xmlns="http://www.w3.org/2000/svg" viewBox="0 0 800 450" role="img" aria-labelledby="t d"><title id="t">Lastarria streets</title><desc id="d">Stylised colourful street scene inspired by central Santiago.</desc><defs><linearGradient id="s" x2="0" y2="1"><stop stop-color="#8fd4e3"/><stop offset="1" stop-color="#edf7e8"/></linearGradient></defs><rect width="800" height="450" fill="url(#s)"/><circle cx="675" cy="82" r="48" fill="#f5c84c"/><path d="M0 365 150 250l120 96 145-172 180 190 110-92 95 88v90H0z" fill="#176b5b" opacity=".28"/><path d="M70 185h170v205H70z" fill="#e87f5e"/><path d="M255 135h210v255H255z" fill="#f5c84c"/><path d="M480 205h245v185H480z" fill="#087f9c"/><g fill="#fff" opacity=".9"><path d="M100 220h38v48h-38zM165 220h38v48h-38zM300 180h44v56h-44zM377 180h44v56h-44zM520 245h48v52h-48zM610 245h48v52h-48z"/></g><path d="M0 390h800v60H0z" fill="#123d46"/><path d="M85 390c80-85 145-85 220 0M440 390c65-75 140-75 225 0" fill="none" stroke="#fff" stroke-width="12" opacity=".35"/></svg>