<svg xmlns="http://www.w3.org/2000/svg" viewBox="0 0 800 450" role="img" aria-labelledby="t d"><title id="t">Santiago and the Andes</title><desc id="d">Stylised Santiago skyline with hills and mountain backdrop.</desc><defs><linearGradient id="s" x2="0" y2="1"><stop stop-color="#7dcce0"/><stop offset="1" stop-color="#f5e8bc"/></linearGradient></defs><rect width="800" height="450" fill="url(#s)"/><circle cx="660" cy="95" r="54" fill="#f5c84c"/><path d="M0 255 105 150l82 78 118-160 112 155 96-118 135 137 72-79 80 94v193H0z" fill="#dcebee"/><path d="M0 305 155 200l118 105 122-73 145 91 115-94 145 102v119H0z" fill="#176b5b" opacity=".62"/><g fill="#123d46"><path d="M95 270h56v120H95zM175 245h68v145h-68zM274 290h48v100h-48zM350 235h80v155h-80zM460 270h55v120h-55zM545 220h75v170h-75zM655 285h52v105h-52z"/></g><path d="M0 390h800v60H0z" fill="#087f9c"/><path d="M58 405h684" stroke="#fff" stroke-width="8" opacity=".4"/></svg>