<svg xmlns="http://www.w3.org/2000/svg" viewBox="0 0 800 450" role="img" aria-labelledby="t d"><title id="t">Valparaíso hills</title><desc id="d">Stylised colourful houses climbing Valparaíso's hills above the bay.</desc><defs><linearGradient id="s" x2="0" y2="1"><stop stop-color="#8fd4e3"/><stop offset="1" stop-color="#e5f4ef"/></linearGradient></defs><rect width="800" height="450" fill="url(#s)"/><circle cx="680" cy="78" r="46" fill="#f5c84c"/><path d="M0 330 135 210l92 60 120-155 112 105 95-66 96 92 75-48 75 84v168H0z" fill="#176b5b" opacity=".35"/><g><path d="M55 285h105v105H55z" fill="#e77b62"/><path d="M170 255h105v135H170z" fill="#f5c84c"/><path d="M285 210h105v180H285z" fill="#087f9c"/><path d="M400 245h105v145H400z" fill="#d85f8b"/><path d="M515 190h105v200H515z" fill="#f08d49"/><path d="M630 250h105v140H630z" fill="#176b5b"/></g><g fill="#fff" opacity=".88"><path d="M82 315h30v34H82zM205 290h32v38h-32zM322 250h34v42h-34zM437 282h34v38h-34zM552 230h34v44h-34zM665 285h34v38h-34z"/></g><path d="M0 390h800v60H0z" fill="#6bbfd2"/><path d="M0 410c150-20 300 25 440 0s250-18 360 5" fill="none" stroke="#fff" stroke-width="8" opacity=".55"/></svg>